<?xml version="1.0" standalone="no"?>
<!DOCTYPE svg PUBLIC "-//W3C//DTD SVG 20010904//EN"
 "http://www.w3.org/TR/2001/REC-SVG-20010904/DTD/svg10.dtd">
<svg version="1.0" xmlns="http://www.w3.org/2000/svg"
 width="421.000000pt" height="421.000000pt" viewBox="0 0 421.000000 421.000000"
 preserveAspectRatio="xMidYMid meet">

<g transform="translate(0.000000,421.000000) scale(0.100000,-0.100000)"
fill="#000000" stroke="none">
<path d="M1574 3574 c-12 -16 -35 -29 -64 -35 -25 -6 -55 -21 -68 -35 -13 -13
-30 -24 -38 -24 -40 0 -114 -87 -114 -134 0 -13 -11 -37 -24 -53 -36 -43 -46
-68 -46 -111 0 -24 -6 -45 -16 -53 -8 -7 -24 -29 -34 -49 -16 -31 -16 -39 -5
-68 11 -24 12 -46 4 -91 -7 -48 -6 -69 7 -107 14 -42 15 -60 4 -143 -15 -111
-7 -381 15 -536 16 -112 20 -239 6 -231 -5 3 -14 27 -20 53 -21 84 -86 173
-114 156 -5 -3 11 -26 36 -52 47 -47 77 -119 92 -218 4 -24 11 -43 16 -43 5 0
9 -11 9 -25 0 -22 4 -25 36 -25 29 0 34 3 30 18 -31 100 -56 301 -56 447 0 44
9 123 20 175 11 52 27 140 35 197 35 234 94 322 257 385 48 18 67 20 198 14
419 -18 474 -18 588 -2 127 18 270 21 321 6 19 -5 64 -28 101 -50 112 -68 148
-138 185 -356 14 -82 29 -165 35 -184 35 -117 15 -466 -36 -632 -4 -15 1 -18
30 -18 32 0 36 3 36 25 0 14 4 25 9 25 5 0 12 19 16 43 17 107 43 171 89 216
45 44 53 71 15 50 -30 -15 -76 -93 -89 -150 -7 -27 -17 -52 -23 -56 -14 -9 -1
221 15 250 7 13 15 122 21 272 14 358 1 431 -94 539 -22 25 -29 44 -29 73 0
116 -91 221 -250 288 -25 11 -66 32 -91 47 -78 47 -213 107 -275 122 -124 30
-123 30 -59 -12 122 -79 265 -268 265 -350 0 -26 -5 -32 -35 -42 -53 -18 -246
-13 -297 6 -61 24 -73 40 -92 119 -25 103 -86 221 -148 288 -30 31 -50 57 -45
57 20 0 89 -44 163 -102 89 -71 139 -108 148 -108 14 0 -4 64 -24 86 -36 38
-16 28 44 -21 54 -44 76 -54 76 -36 0 18 -130 129 -159 136 -42 9 -47 22 -8
18 31 -3 31 -3 7 8 -14 6 -70 15 -125 19 -55 4 -120 13 -144 19 -37 10 -54 9
-93 -4 -44 -14 -50 -14 -100 5 -70 26 -90 25 -114 -6z m129 -43 c21 -20 66
-72 99 -117 57 -75 146 -156 132 -120 -15 38 16 10 66 -60 30 -42 64 -80 76
-84 30 -12 36 -55 11 -86 -40 -51 -117 -14 -201 95 -45 59 -256 398 -256 413
0 14 35 -5 73 -41z m-94 -83 c12 -34 21 -75 21 -91 l0 -28 -32 23 c-61 42
-142 128 -132 137 5 5 27 11 49 14 22 2 47 4 57 5 12 2 22 -15 37 -60z m-167
-35 c24 -40 65 -77 132 -117 38 -23 82 -63 123 -112 35 -42 63 -77 63 -79 0
-6 -278 140 -318 167 -44 30 -102 101 -102 124 0 21 30 44 59 44 19 0 32 -8
43 -27z m1180 -115 c55 -57 108 -157 108 -207 0 -30 -2 -33 -13 -21 -8 8 -22
36 -31 62 -26 71 -91 166 -160 232 l-61 59 55 -39 c30 -21 76 -60 102 -86z"/>
<path d="M1505 2470 c-40 -12 -99 -70 -86 -83 7 -7 -6 -23 -38 -48 -93 -74
-126 -148 -126 -279 1 -111 18 -157 84 -232 65 -73 76 -76 277 -78 l175 -1 63
63 c65 65 102 137 114 222 7 53 72 96 147 96 61 0 121 -36 131 -78 28 -123 49
-169 108 -230 67 -71 75 -73 263 -71 155 1 168 2 202 24 54 34 87 74 117 139
69 151 27 337 -96 423 -27 19 -39 34 -36 45 6 25 -51 76 -99 89 -46 13 -207 5
-300 -14 -45 -10 -61 -18 -64 -32 -5 -26 25 -44 63 -38 25 4 33 1 33 -10 0 -8
-6 -13 -13 -10 -33 12 -164 -167 -164 -226 0 -31 -17 -34 -50 -9 -20 14 -45
23 -70 23 -21 0 -37 3 -34 6 8 14 -71 -11 -97 -30 -16 -12 -30 -21 -33 -21 -2
0 -11 24 -20 53 -8 29 -31 75 -51 102 -35 50 -102 108 -115 100 -4 -2 -7 3 -7
11 0 12 8 15 33 11 38 -6 68 12 63 38 -3 14 -19 22 -64 32 -80 17 -272 25
-310 13z m432 -372 c-3 -8 -6 -5 -6 6 -1 11 2 17 5 13 3 -3 4 -12 1 -19z
m-464 -272 c12 -3 67 -7 122 -11 54 -3 101 -8 104 -10 9 -10 -8 -15 -60 -19
-69 -6 -131 3 -122 17 4 6 0 8 -10 4 -31 -12 -110 23 -149 65 -57 61 -46 64
28 8 36 -27 75 -52 87 -54z m417 89 c-7 -8 -9 -15 -4 -15 9 0 -13 -16 -61 -45
-24 -14 -20 -8 17 29 44 44 75 63 48 31z m530 -73 c0 -8 -55 30 -72 50 -37 42
-16 40 27 -2 25 -24 45 -46 45 -48z m472 61 c-32 -58 -146 -111 -254 -119 -66
-4 -113 5 -98 20 11 11 21 12 140 14 75 2 76 2 145 56 39 29 71 52 73 51 2 -2
-1 -12 -6 -22z"/>
<path d="M918 848 c-33 -51 -80 -153 -108 -236 -30 -89 -61 -304 -46 -319 10
-11 2100 -17 2425 -8 l254 7 -7 85 c-13 152 -86 387 -141 451 l-22 25 -13
-244 -13 -245 -33 -22 -34 -22 -1047 0 c-660 0 -1061 4 -1084 10 -20 6 -47 23
-61 38 -25 28 -26 35 -38 263 -6 129 -13 235 -15 237 -1 1 -9 -8 -17 -20z"/>
</g>
</svg>
